<?xml version="1.0" encoding="utf-8"?>
<!-- Generator: Adobe Illustrator 24.0.1, SVG Export Plug-In . SVG Version: 6.00 Build 0)  -->
<svg version="1.1" id="图层_1" xmlns="http://www.w3.org/2000/svg" xmlns:xlink="http://www.w3.org/1999/xlink" x="0px" y="0px"
	 viewBox="0 0 80 80" style="enable-background:new 0 0 80 80;" xml:space="preserve">
<style type="text/css">
	.st0{fill:none;stroke:#000000;stroke-linecap:round;}
	.st1{fill:none;stroke:#000000;stroke-width:1.5;stroke-linecap:round;}
</style>
<g id="编组-49" transform="translate(10.000000, 11.000000)">
	<g id="编组-41">
		<path id="路径" class="st0" d="M10,3c1.7-1.3,3.7-2.3,6-2.3c4.8,0,8.6,3.6,8.6,8.1v9.3c0,4.5-3.9,8.1-8.6,8.1
			c-2.4,0-4.6-0.9-6.1-2.4l0,32.8H0V23.8c0.7-6.1,2-10.6,3.9-13.5C6.7,6,8.4,4.2,10,3z"/>
		<line id="直线-4" class="st1" x1="16.6" y1="11.5" x2="16.6" y2="16.4"/>
	</g>
	
		<g id="编组-41_1_" transform="translate(47.500000, 28.500000) scale(-1, 1) translate(-47.500000, -28.500000) translate(35.000000, 0.000000)">
		<path id="路径_1_" class="st0" d="M10,3c1.7-1.3,3.7-2.3,6-2.3c4.8,0,8.6,3.6,8.6,8.1v9.3c0,4.5-3.9,8.1-8.6,8.1
			c-2.4,0-4.6-0.9-6.1-2.4l0,32.8H0V23.8c0.7-6.1,2-10.6,3.9-13.5C6.7,6,8.4,4.2,10,3z"/>
		<line id="直线-4_1_" class="st1" x1="16.6" y1="11.5" x2="16.6" y2="16.4"/>
	</g>
</g>
</svg>
